<svg xmlns="http://www.w3.org/2000/svg" viewBox="0 0 180 180" fill="none">
  <defs>
    <linearGradient id="bg" x1="0" y1="0" x2="180" y2="180" gradientUnits="userSpaceOnUse">
      <stop offset="0%" stop-color="#8b5cf6"/>
      <stop offset="50%" stop-color="#6366f1"/>
      <stop offset="100%" stop-color="#06b6d4"/>
    </linearGradient>
    <linearGradient id="body" x1="0" y1="0" x2="0" y2="1">
      <stop offset="0%" stop-color="#ffffff"/>
      <stop offset="100%" stop-color="#f1f5f9"/>
    </linearGradient>
    <radialGradient id="glow" cx="90" cy="90" r="62" gradientUnits="userSpaceOnUse">
      <stop offset="0%" stop-color="#ffffff" stop-opacity="0.4"/>
      <stop offset="100%" stop-color="#ffffff" stop-opacity="0"/>
    </radialGradient>
  </defs>
  <rect width="180" height="180" rx="38" fill="url(#bg)"/>
  <circle cx="90" cy="90" r="62" fill="url(#glow)"/>
  <g transform="translate(11 8) rotate(35 90 90)">
    <polygon points="6,90 36,75 36,105" fill="url(#body)"/>
    <polygon points="13,90 36,82 36,98" fill="#fef3c7"/>
    <rect x="36" y="75" width="118" height="30" fill="url(#body)"/>
    <rect x="50" y="75" width="9" height="30" fill="#7c3aed"/>
    <line x1="50" y1="82" x2="59" y2="82" stroke="#5b21b6" stroke-width="1.4"/>
    <line x1="50" y1="98" x2="59" y2="98" stroke="#5b21b6" stroke-width="1.4"/>
    <rect x="142" y="75" width="12" height="30" fill="#cbd5e1"/>
  </g>
  <g transform="translate(142 38)" fill="#ffffff">
    <path d="M0 -11 C1.4 -3.6 3.6 -1.4 11 0 C3.6 1.4 1.4 3.6 0 11 C-1.4 3.6 -3.6 1.4 -11 0 C-3.6 -1.4 -1.4 -3.6 0 -11 Z"/>
  </g>
  <g transform="translate(156 60)" fill="#ffffff" opacity="0.8">
    <path d="M0 -7 C0.9 -2.3 2.3 -0.9 7 0 C2.3 0.9 0.9 2.3 0 7 C-0.9 2.3 -2.3 0.9 -7 0 C-2.3 -0.9 -0.9 -2.3 0 -7 Z"/>
  </g>
  <g transform="translate(40 148)" fill="#ffffff" opacity="0.7">
    <path d="M0 -8 C1 -2.6 2.6 -1 8 0 C2.6 1 1 2.6 0 8 C-1 2.6 -2.6 1 -8 0 C-2.6 -1 -1 -2.6 0 -8 Z"/>
  </g>
</svg>
