<svg xmlns="http://www.w3.org/2000/svg" viewBox="0 0 64 64" fill="none">
  <defs>
    <linearGradient id="bg" x1="0" y1="0" x2="64" y2="64" gradientUnits="userSpaceOnUse">
      <stop offset="0%" stop-color="#8b5cf6"/>
      <stop offset="50%" stop-color="#6366f1"/>
      <stop offset="100%" stop-color="#06b6d4"/>
    </linearGradient>
  </defs>
  <rect width="64" height="64" rx="12" fill="url(#bg)"/>
  <g transform="translate(4 3) rotate(35 32 32)">
    <polygon points="2,32 12,27 12,37" fill="#ffffff"/>
    <polygon points="4,32 12,29.5 12,34.5" fill="#fef3c7"/>
    <rect x="12" y="27" width="40" height="10" fill="#ffffff"/>
    <rect x="17" y="27" width="3" height="10" fill="#7c3aed"/>
    <rect x="48" y="27" width="4" height="10" fill="#cbd5e1"/>
  </g>
  <g transform="translate(50 14)" fill="#ffffff">
    <path d="M0 -4 C0.5 -1.3 1.3 -0.5 4 0 C1.3 0.5 0.5 1.3 0 4 C-0.5 1.3 -1.3 0.5 -4 0 C-1.3 -0.5 -0.5 -1.3 0 -4 Z"/>
  </g>
  <g transform="translate(14 52)" fill="#ffffff" opacity="0.75">
    <path d="M0 -3 C0.4 -1 1 -0.4 3 0 C1 0.4 0.4 1 0 3 C-0.4 1 -1 0.4 -3 0 C-1 -0.4 -0.4 -1 0 -3 Z"/>
  </g>
</svg>
